<?xml version="1.0" standalone="no"?>
<!DOCTYPE svg PUBLIC "-//W3C//DTD SVG 20010904//EN"
 "http://www.w3.org/TR/2001/REC-SVG-20010904/DTD/svg10.dtd">
<svg version="1.0" xmlns="http://www.w3.org/2000/svg"
 width="256.000000pt" height="256.000000pt" viewBox="0 0 256.000000 256.000000"
 preserveAspectRatio="xMidYMid meet">
<metadata>
Created by potrace 1.11, written by Peter Selinger 2001-2013
</metadata>
<g transform="translate(0.000000,256.000000) scale(0.100000,-0.100000)"
fill="#000000" stroke="none">
<path d="M633 2533 c-17 -26 -18 -96 -19 -1243 0 -711 4 -1226 9 -1243 19 -56
77 -59 96 -5 8 22 11 400 11 1250 l0 1219 -25 24 c-31 32 -50 31 -72 -2z"/>
<path d="M2061 2534 l-21 -27 2 -1234 3 -1235 24 -19 c32 -26 47 -24 68 8 17
26 18 96 19 1238 0 665 -3 1225 -8 1242 -8 30 -33 53 -57 53 -5 0 -19 -12 -30
-26z"/>
<path d="M1853 2394 c-16 -26 -17 -88 -17 -1114 0 -1016 1 -1089 17 -1113 23
-36 59 -35 82 0 17 26 18 90 18 1108 0 1179 2 1136 -55 1143 -20 2 -31 -4 -45
-24z"/>
<path d="M845 2266 c-19 -19 -25 -36 -25 -71 -1 -25 -1 -448 -1 -940 0 -492 0
-904 1 -915 0 -30 43 -70 68 -63 47 12 47 9 47 1008 0 924 0 940 -20 969 -27
40 -40 42 -70 12z"/>
<path d="M1464 2232 c-33 -22 -34 -46 -34 -951 0 -646 3 -907 11 -925 14 -30
56 -43 76 -24 7 8 17 27 21 43 5 17 8 431 8 920 -1 835 -2 893 -19 918 -17 27
-41 34 -63 19z"/>
<path d="M434 2129 c-18 -20 -19 -49 -19 -850 l0 -828 21 -22 c15 -15 28 -19
43 -14 50 15 49 3 47 870 -1 758 -2 813 -19 838 -21 32 -47 35 -73 6z"/>
<path d="M1651 2119 c-18 -29 -19 -67 -19 -834 0 -725 2 -808 17 -837 19 -40
50 -47 77 -17 18 21 19 43 19 849 0 800 -1 829 -19 849 -27 30 -53 26 -75 -10z"/>
<path d="M23 2038 c-17 -19 -18 -60 -21 -732 -2 -391 0 -726 3 -744 12 -67 81
-77 102 -15 6 17 9 318 9 743 -1 713 -3 757 -34 761 -4 0 -15 2 -24 4 -9 2
-25 -6 -35 -17z"/>
<path d="M1243 1984 c-16 -26 -18 -70 -18 -683 0 -361 3 -671 6 -690 10 -45
31 -65 61 -58 49 13 49 16 49 728 0 726 1 721 -53 727 -20 2 -31 -4 -45 -24z"/>
<path d="M2262 1981 c-17 -28 -18 -73 -18 -703 1 -628 2 -676 19 -701 26 -39
62 -35 86 10 15 29 16 1339 0 1380 -19 52 -60 58 -87 14z"/>
<path d="M238 1909 c-10 -5 -20 -26 -24 -47 -4 -20 -7 -288 -7 -594 0 -425 3
-564 13 -587 20 -50 65 -52 91 -5 11 21 13 134 14 582 0 307 -3 575 -6 596
-10 56 -43 78 -81 55z"/>
<path d="M1041 1799 c-19 -30 -19 -56 -18 -530 2 -494 2 -499 23 -520 27 -27
59 -19 79 20 12 23 14 109 12 523 -2 472 -3 497 -21 517 -27 30 -53 26 -75
-10z"/>
<path d="M2477 1728 c-9 -7 -20 -24 -25 -38 -5 -14 -9 -203 -8 -420 1 -413 3
-429 45 -445 23 -9 60 23 66 57 3 18 5 210 3 426 l-3 394 -24 19 c-27 22 -32
23 -54 7z"/>
</g>
</svg>
